<?xml version="1.0" standalone="no"?>
<!DOCTYPE svg PUBLIC "-//W3C//DTD SVG 20010904//EN"
 "http://www.w3.org/TR/2001/REC-SVG-20010904/DTD/svg10.dtd">
<svg version="1.0" xmlns="http://www.w3.org/2000/svg"
 width="700.000000pt" height="700.000000pt" viewBox="0 0 700.000000 700.000000"
 preserveAspectRatio="xMidYMid meet">
<metadata>
Created by potrace 1.11, written by Peter Selinger 2001-2013
</metadata>
<g transform="translate(0.000000,700.000000) scale(0.100000,-0.100000)"
fill="#000000" stroke="none">
<path d="M3427 6734 c-1 -1 -58 -4 -127 -7 -130 -6 -248 -19 -348 -36 -31 -6
-74 -13 -95 -17 -155 -24 -462 -118 -662 -204 -190 -81 -431 -214 -575 -317
-56 -41 -229 -172 -254 -194 -271 -234 -514 -523 -690 -822 -51 -87 -161 -300
-166 -319 0 -4 -15 -38 -32 -75 -29 -66 -54 -133 -104 -283 -26 -79 -88 -321
-98 -383 -3 -21 -9 -53 -12 -73 -3 -20 -7 -45 -9 -56 -3 -11 -7 -46 -10 -77
-4 -31 -8 -67 -11 -81 -4 -25 -17 -261 -17 -315 0 -65 14 -349 18 -354 2 -4 6
-34 10 -66 36 -340 167 -759 343 -1095 86 -165 233 -397 311 -490 11 -14 24
-30 28 -35 90 -118 249 -286 387 -410 103 -93 100 -92 125 -49 12 19 21 39 21
45 0 5 4 9 8 9 4 0 13 12 19 27 11 27 41 80 107 189 55 92 156 169 260 199
150 43 289 10 474 -112 55 -37 142 -129 142 -150 0 -7 4 -13 8 -13 5 0 19 -33
32 -72 33 -100 32 -208 -3 -298 -14 -36 -65 -135 -115 -220 -71 -122 -87 -157
-76 -163 48 -28 397 -129 518 -151 16 -3 52 -10 80 -16 28 -5 67 -12 86 -14
61 -7 134 -17 170 -22 65 -9 484 -12 560 -4 41 5 102 11 135 14 261 28 643
129 875 233 223 100 363 175 521 281 56 37 109 72 118 77 9 6 18 12 21 16 3 3
23 18 45 35 22 16 45 34 51 39 6 6 28 24 49 40 90 71 275 249 364 350 24 28
53 61 66 75 35 40 180 235 206 277 12 21 26 40 29 43 29 26 220 391 274 525
94 234 181 548 211 755 3 25 8 59 11 75 2 17 7 59 10 95 3 36 8 81 10 100 5
47 4 424 -1 480 -2 25 -7 68 -10 95 -52 474 -208 937 -449 1335 -29 47 -58 96
-66 110 -8 13 -20 30 -27 37 -6 7 -22 29 -34 50 -13 21 -31 47 -41 58 -9 11
-19 24 -20 30 -2 5 -12 19 -23 30 -11 12 -42 49 -70 84 -106 133 -267 297
-404 411 -30 25 -59 50 -65 55 -6 6 -49 38 -96 72 -47 34 -96 70 -110 81 -105
80 -456 266 -635 335 -260 100 -560 178 -780 202 -33 4 -71 8 -85 11 -14 2
-86 7 -160 10 -74 3 -154 7 -178 8 -24 1 -44 1 -45 0z m243 -1178 c25 -3 68
-8 95 -11 28 -3 57 -8 65 -10 8 -2 31 -7 50 -10 298 -50 674 -230 935 -447 82
-68 226 -214 280 -282 17 -21 36 -45 43 -52 6 -7 12 -17 12 -22 0 -6 4 -12 8
-14 46 -18 295 -496 295 -564 0 -8 4 -14 8 -14 6 0 21 -61 21 -87 0 -5 3 -12
8 -18 4 -5 12 -28 16 -50 9 -46 13 -61 15 -67 4 -12 21 -100 24 -128 2 -19 7
-55 11 -80 8 -56 11 -440 4 -440 -3 0 -6 -10 -7 -22 -2 -65 -36 -244 -67 -347
-8 -28 -12 -51 -8 -51 4 0 3 -4 -3 -8 -5 -4 -21 -38 -34 -77 -12 -38 -32 -88
-42 -109 -10 -22 -19 -46 -19 -53 0 -7 -5 -13 -12 -13 -6 0 -9 -3 -6 -6 6 -5
-23 -64 -81 -169 -9 -16 -22 -36 -28 -43 -7 -7 -13 -17 -13 -22 0 -5 -6 -15
-13 -22 -7 -7 -30 -40 -52 -73 -21 -33 -47 -67 -57 -76 -10 -9 -18 -19 -18
-22 0 -8 -59 -74 -135 -151 -209 -210 -398 -338 -698 -470 -116 -52 -301 -102
-527 -142 -19 -3 -123 -7 -230 -9 -207 -4 -285 3 -460 40 -169 35 -320 87
-489 167 -87 41 -264 146 -269 160 -2 4 -10 8 -18 8 -8 0 -14 4 -14 9 0 5 -8
12 -18 15 -9 3 -31 18 -48 33 -17 16 -49 42 -70 59 -76 62 -193 182 -274 283
-19 23 -43 52 -52 63 -10 12 -18 25 -18 29 0 4 -6 14 -12 21 -20 21 -68 93
-100 150 -46 84 -138 277 -138 291 0 7 -4 17 -8 23 -9 10 -44 116 -40 124 1 3
-5 16 -12 30 -8 14 -15 38 -17 53 -2 16 -8 37 -13 48 -6 10 -9 19 -6 19 3 0 0
15 -5 33 -5 17 -12 52 -15 77 -3 25 -8 56 -10 70 -23 121 -23 458 0 580 3 14
7 41 10 60 3 19 8 46 11 60 3 14 8 36 10 50 2 14 11 50 20 80 9 30 17 60 19
65 8 32 40 122 46 130 5 6 9 13 9 17 3 15 13 43 22 60 5 10 9 23 9 30 0 6 8
20 18 31 11 13 12 17 3 12 -8 -5 -5 6 8 23 12 18 19 32 14 32 -4 0 -3 4 2 8 6
4 23 32 39 62 39 73 116 194 127 198 5 2 9 9 9 15 0 7 13 26 28 43 15 17 36
44 47 60 27 38 238 249 299 299 134 109 323 224 476 290 47 20 94 40 105 45
106 48 390 113 550 126 44 3 81 7 82 8 5 4 260 -3 303 -8z"/>
</g>
</svg>
