<?xml version="1.0" encoding="UTF-8" standalone="no"?>
<svg width="1197px" height="1260px" viewBox="0 0 1197 1260" version="1.1" xmlns="http://www.w3.org/2000/svg" xmlns:xlink="http://www.w3.org/1999/xlink" xmlns:sketch="http://www.bohemiancoding.com/sketch/ns">
    <!-- Generator: Sketch 3.3.2 (12043) - http://www.bohemiancoding.com/sketch -->
    <title>nodes-background-1</title>
    <desc>Created with Sketch.</desc>
    <defs></defs>
    <g id="Page-1" stroke="none" stroke-width="1" fill="none" fill-rule="evenodd" sketch:type="MSPage" opacity="0.25">
        <g id="nodes-2-enlarged" sketch:type="MSArtboardGroup" transform="translate(-83.000000, -55.000000)">
            <g id="nodes-background-1" sketch:type="MSLayerGroup" transform="translate(83.000000, 55.000000)">
                <g id="paths" transform="translate(8.000000, 3.000000)" stroke="#FFFFFF" sketch:type="MSShapeGroup">
                    <path d="M110.339844,30.8242187 L211.628906,44.6054687 L259.519531,127.933594 L77.6640625,289.386719 L106.675781,156.195312 L319.179688,278.882812 L2.07421875,339.714844 L167.871094,473.378906 L343.773438,401.378906 L418.15625,54.0507812 L530.441406,102.28125 L497.09375,220.648437 L505.785156,400.386719 L344.722656,520.851562" id="Path-17"></path>
                    <path d="M88.4648438,581.136719 L76.4609375,696.875 L247.8125,662.421875 L377.480469,675.792969 L457.953125,586.042969 L598.972656,499.851562 L657.371094,272.21875 L752.628906,175.109375 L714.136719,356.363281 L813.292969,325.296875 L654.59375,49.3867188 L862.910156,1.15234375 L989.328125,104.164062 L927.246094,209.042969 L1055.61328,248.222656 L1118.61719,86.8515625 L1178.90234,348.832031 L1080.33594,448.859375 L998.503906,369.5 L915.664062,494.582031 L756.375,482.027344 L738.578125,585.152344 L880.246094,672.683594 L1064.78516,655.574219 L623.824219,660.253906 L477.1875,802.96875 L347.519531,878.003906 L422.730469,1001.91797 L364.609375,1130.73438 L561.5625,1143.52344 L160.511719,1074.47266 L201.011719,947.523438 L132.957031,848.429688 L44.6796875,948.984375 L607.84375,834.347656 L689.261719,805.675781 L638.175781,949.035156 L823.957031,779.867188 L795.75,919.429688 L930.148438,789.210938 L813.902344,1103.89453 L713.683594,1245.38672 L898.21875,1151.3125 L931.980469,1004.04297 L982.359375,871.894531 L1050.45703,1014.92578 L1092.80469,816.992188" id="Path-18"></path>
                    <path d="M109.121094,30.4648438 L105.867188,158.523438 L209.519531,44.1289062 L183.324219,297.269531 L167.359375,472.277344" id="Path-19"></path>
                    <path d="M79.8007812,290.691406 L0.15234375,340.035156 L343.804688,401.875 L529.289062,104.179688 L504.21875,402.691406" id="Path-20"></path>
                    <path d="M78.7265625,288.4375 L321.625,278.566406 L417.117188,54.21875 L261.609375,127.09375 L529.8125,104.609375" id="Path-21"></path>
                    <path d="M321.625,279.210938 L498.476562,218.945312 L342.96875,402.714844 L503.679687,402.304688 L655.460938,274.945312 L656.109375,45.6328125 L530.167969,104.203125 L597.632812,500.113281 L343.027344,520.726562 L166.355469,472.496094" id="Path-22"></path>
                    <path d="M258.5625,128.089844 L320.646484,279.039062" id="Path-23"></path>
                    <path d="M109.832031,28.7773438 L342.558594,401.859375 L343.089844,519.289062 L460.339844,584.050781 L87.8945312,580.253906 L166.0625,472.925781" id="Path-24"></path>
                    <path d="M714.488281,356.269531 L654.710938,272.824219 L756.589844,481.523438 L597.652344,499.332031 L739.679688,586.398438 L916.117188,496.648438 L927.703125,208.296875 L812.40625,325.785156 L998.007812,368.824219 L1056.89844,246.371094 L990.5,103.011719 L752.6875,173.902344" id="Path-25"></path>
                    <path d="M1078.44141,449.589844 L915.898438,495.019531 L1067.5625,656.480469 L738.574219,586.699219" id="Path-26"></path>
                    <path d="M596.605469,499.085938 L622.738281,659.609375 L687.601562,804.253906 L739.578125,586.617188 L460.199219,585.507812" id="Path-27"></path>
                    <path d="M89.7695312,580.640625 L245.453125,662.507812 L346.859375,877.222656 L131.871094,847.96875 L374.472656,674.773438 L75.1679688,696.554688 L160.605469,1072.4375 L422.71875,1002.1875 L606.488281,834.421875 L475.519531,804.816406 L635.519531,950.160156 L795.816406,919.152344" id="Path-28"></path>
                    <path d="M376.894531,674.886719 L473.984375,803.179688 L460.5625,586.886719 L622.808594,660.230469 L606.488281,833.429688 L561.5,1144.68359 L423.554688,1001.96875 L636.0625,946.4375 L812.835938,1105.05469 L896.9375,1153.39062 L797.1875,919.113281" id="Path-29"></path>
                    <path d="M560.683594,1143.75 L710.039062,1247.39844 L635.125,946.84375 L930.289062,1003.89453 L931.828125,790.640625 L1091.88672,815.632812 L981.910156,870.40625" id="Path-30"></path>
                    <path d="M1050.55469,1015.22266 L898.773438,1152.56641 L561.273438,1144.74219 L477.160156,802.597656" id="Path-31"></path>
                    <path d="M689.066406,806.203125 L881.761719,672.421875 L824.882812,778 L929.183594,791.71875 L1066.24219,656.945312 L1092.02344,814.554688" id="Path-32"></path>
                    <path d="M1093.14453,816.886719 L880.757812,675.164062" id="Path-33"></path>
                    <path d="M795.574219,919.003906 L981.234375,872.113281 L822.710938,778.101562 L1066.4375,654.597656" id="Path-34"></path>
                    <path d="M1179.08203,350.488281 L1092.39844,817.289062 L914.898438,495.246094" id="Path-35"></path>
                    <path d="M1077.73828,450.925781 L1067.44922,654.777344" id="Path-36"></path>
                    <path d="M756.910156,483.976562 L714.394531,355.742188 L916.554688,493.496094 L813.140625,325.027344" id="Path-37"></path>
                    <path d="M714.21875,1245.61719 L362.167969,1132.74219 L158.828125,1074.93359 L44.1210937,951.371094 L76.5195312,695.808594 L1.3984375,339.574219 L88.4921875,578.875" id="Path-38"></path>
                    <path d="M1.32421875,338.859375 L110.238281,29.2539062" id="Path-39"></path>
                    <path d="M210.933594,45.2539062 L416.996094,54.8867188 L655.382812,47.2382812" id="Path-40"></path>
                    <path d="M863.035156,0.93359375 L1118.64453,88.7578125 L990.574219,102.773437 L655.839844,46.0429688 L752.515625,174.21875 L928.832031,209.136719 L997.183594,367.792969 L1178.94531,350.976562 L1054.30078,246.277344" id="Path-41"></path>
                    <path d="M88.59375,580.835938 L78.8945312,287.699219 L167.234375,471.289062 L320.433594,278.882812 L502.96875,400.042969 L598.285156,500.421875 L344.210938,401.851562" id="Path-42"></path>
                    <path d="M655.460938,272.683594 L530.109375,104.566406" id="Path-43"></path>
                    <path d="M110.757812,29.2773437 L863.632812,0.60546875 L752.589844,172.28125 L530.015625,104.121094 L989.902344,103.886719 L1178.64062,352.648438 L1067.90625,655.726562" id="Path-44"></path>
                    <path d="M375.867188,675.085938 L343.464844,519.347656 L247.265625,661.421875 L167.265625,474.734375 L460.304688,587.027344 L504.355469,402.96875 L757.144531,481.28125" id="Path-45"></path>
                    <path d="M0.90234375,340.003906 L43.6484375,948.179688" id="Path-46"></path>
                    <path d="M132.5625,849.714844 L75.5039062,696.835938 L346.25,878.152344 L374.984375,675.113281 L621.84375,660.75 L822.308594,778.859375 L691.339844,804.902344 L794.515625,918.363281 L714.128906,1245.93359 L475.785156,803.597656" id="Path-47"></path>
                    <path d="M201.339844,950.222656 L361.632812,1132.53125 L346.261719,878.28125" id="Path-48"></path>
                    <path d="M201.457031,950.050781 L422.949219,1003.53906 L129.972656,849.261719" id="Path-49"></path>
                    <path d="M475.335938,803.945312 L423.007812,1002.66406 L813.9375,1103.96094 L1050.10938,1014.60547" id="Path-50"></path>
                    <path d="M1052.42188,1015.58203 L932.863281,1005.01172 L1091.38672,817.042969 L897.386719,1151.52344 L687.660156,803.320312 L374.511719,675.605469" id="Path-51"></path>
                    <path d="M880.917969,674.042969 L914.621094,493.488281 L990.621094,103.4375 L999.15625,368.691406 L1065.81641,655.785156" id="Path-52"></path>
                    <path d="M756.753906,482.472656 L880.390625,674.589844 L813.042969,325.332031" id="Path-53"></path>
                    <path d="M756.457031,482.707031 L812.925781,323.171875 L751.441406,174.457031" id="Path-54"></path>
                    <path d="M655.550781,48.4570312 L110.925781,28.3125 L260.164062,128.164062 L497.324219,219.902344 L655.609375,273.683594 L988.53125,104.136719 L812.507812,323.171875 L597.175781,499.917969" id="Path-55"></path>
                    <path d="M623.460938,660.035156 L739.707031,585.640625" id="Path-56"></path>
                    <path d="M375.183594,675.917969 L598.628906,500.152344" id="Path-57"></path>
                    <path d="M75.3789062,695.875 L344,400.164062 L245.492188,660.777344 L131.75,848.246094 L160.910156,1072.23828 L347.28125,877.320312" id="Path-58"></path>
                </g>
                <g id="regular" transform="translate(129.000000, 274.000000)" fill="#FFFFFF" sketch:type="MSShapeGroup">
                    <circle id="Oval-32-Copy-12" cx="199" cy="7" r="7"></circle>
                    <circle id="Oval-32-Copy-52" transform="translate(877.002911, 97.410536) rotate(115.000000) translate(-877.002911, -97.410536) " cx="877.002911" cy="97.4105361" r="7"></circle>
                    <circle id="Oval-32-Copy-18" transform="translate(9.901325, 577.129067) rotate(115.000000) translate(-9.901325, -577.129067) " cx="9.90132487" cy="577.129067" r="7"></circle>
                    <circle id="Oval-32-Copy-30" transform="translate(253.656592, 403.546725) rotate(118.000000) translate(-253.656592, -403.546725) " cx="253.656592" cy="403.546725" r="7"></circle>
                </g>
                <g id="large" transform="translate(0.000000, 97.000000)" fill="#FFFFFF" sketch:type="MSShapeGroup">
                    <circle id="Oval-32-Copy-16" cx="10" cy="246" r="10"></circle>
                    <circle id="Oval-32-Copy-20" cx="175" cy="379" r="10"></circle>
                    <circle id="Oval-32-Copy-43" transform="translate(721.023357, 1152.598927) rotate(-210.000000) translate(-721.023357, -1152.598927) " cx="721.023357" cy="1152.59893" r="10"></circle>
                    <circle id="Oval-32-Copy-44" cx="905.789781" cy="1058.62437" r="9.99833053"></circle>
                    <circle id="Oval-32-Copy-48" transform="translate(431.027821, 908.109237) rotate(-210.000000) translate(-431.027821, -908.109237) " cx="431.027821" cy="908.109237" r="10"></circle>
                    <circle id="Oval-32-Copy-8" cx="998" cy="10" r="10"></circle>
                    <circle id="Oval-32-Copy-39" cx="1187" cy="257" r="10"></circle>
                    <circle id="Oval-32-Copy-11" cx="538" cy="10" r="10"></circle>
                    <circle id="Oval-32-Copy-23" transform="translate(1100.345565, 722.376113) rotate(118.000000) translate(-1100.345565, -722.376113) " cx="1100.34556" cy="722.376113" r="10"></circle>
                    <circle id="Oval-32-Copy-24" transform="translate(924.235858, 400.510658) rotate(118.000000) translate(-924.235858, -400.510658) " cx="924.235858" cy="400.510658" r="10"></circle>
                    <circle id="Oval-32-Copy-28" transform="translate(484.456583, 709.501255) rotate(118.000000) translate(-484.456583, -709.501255) " cx="484.456583" cy="709.501255" r="10"></circle>
                    <circle id="Oval-32-Copy-32" transform="translate(889.140986, 579.195716) rotate(118.000000) translate(-889.140986, -579.195716) " cx="889.140986" cy="579.195716" r="10"></circle>
                    <circle id="Oval-32-Copy-33" transform="translate(1074.876600, 561.524219) rotate(118.000000) translate(-1074.876600, -561.524219) " cx="1074.8766" cy="561.524219" r="10"></circle>
                    <circle id="Oval-32-Copy-49" transform="translate(351.516169, 307.365036) rotate(118.000000) translate(-351.516169, -307.365036) " cx="351.516169" cy="307.365036" r="10"></circle>
                </g>
                <g id="semi-large" transform="translate(456.000000, 319.000000)" fill="#FFFFFF" sketch:type="MSShapeGroup">
                    <circle id="Oval-32-Copy-19" cx="57" cy="86" r="9"></circle>
                    <circle id="Oval-32-Copy-26" transform="translate(190.000000, 632.000000) rotate(-75.000000) translate(-190.000000, -632.000000) " cx="190" cy="632" r="9"></circle>
                    <circle id="Oval-32-Copy-46" cx="604.392321" cy="698.748728" r="8.99849747"></circle>
                    <circle id="Oval-32-Copy-13" cx="366" cy="9" r="9"></circle>
                    <circle id="Oval-32-Copy-29" transform="translate(176.528192, 343.904801) rotate(118.000000) translate(-176.528192, -343.904801) " cx="176.528192" cy="343.904801" r="9"></circle>
                    <circle id="Oval-32-Copy-34" transform="translate(150.834277, 184.027277) rotate(118.000000) translate(-150.834277, -184.027277) " cx="150.834277" cy="184.027277" r="9"></circle>
                    <circle id="Oval-32-Copy-51" transform="translate(309.112922, 166.011836) rotate(118.000000) translate(-309.112922, -166.011836) " cx="309.112922" cy="166.011836" r="9"></circle>
                    <circle id="Oval-32-Copy-35" transform="translate(12.912348, 270.210463) rotate(118.000000) translate(-12.912348, -270.210463) " cx="12.912348" cy="270.210463" r="9"></circle>
                </g>
                <g id="small" transform="translate(44.000000, 0.000000)" fill="#FFFFFF" sketch:type="MSShapeGroup">
                    <circle id="Oval-32" cx="223" cy="131" r="5"></circle>
                    <circle id="Oval-32-Copy" cx="42" cy="292" r="5"></circle>
                    <circle id="Oval-32-Copy-17" cx="619" cy="276" r="5"></circle>
                    <circle id="Oval-32-Copy-21" cx="52" cy="584" r="5"></circle>
                    <circle id="Oval-32-Copy-2" cx="381" cy="58" r="5"></circle>
                    <circle id="Oval-32-Copy-3" cx="174" cy="47" r="5"></circle>
                    <circle id="Oval-32-Copy-4" cx="70" cy="159" r="5"></circle>
                    <circle id="Oval-32-Copy-5" cx="74" cy="33" r="5"></circle>
                    <circle id="Oval-32-Copy-9" cx="619" cy="51" r="5"></circle>
                    <circle id="Oval-32-Copy-10" cx="461" cy="223" r="5"></circle>
                    <circle id="Oval-32-Copy-40" transform="translate(776.355371, 1107.379073) rotate(-210.000000) translate(-776.355371, -1107.379073) " cx="776.355371" cy="1107.37907" r="5"></circle>
                    <circle id="Oval-32-Copy-41" transform="translate(759.405352, 922.020780) rotate(-210.000000) translate(-759.405352, -922.020780) " cx="759.405352" cy="922.02078" r="5"></circle>
                    <circle id="Oval-32-Copy-42" transform="translate(893.789925, 794.781687) rotate(-210.000000) translate(-893.789925, -794.781687) " cx="893.789925" cy="794.781687" r="5"></circle>
                    <circle id="Oval-32-Copy-45" transform="translate(894.857258, 1006.630362) rotate(-210.000000) translate(-894.857258, -1006.630362) " cx="894.857258" cy="1006.63036" r="5"></circle>
                    <circle id="Oval-32-Copy-47" transform="translate(524.241325, 1146.704736) rotate(-210.000000) translate(-524.241325, -1146.704736) " cx="524.241325" cy="1146.70474" r="5"></circle>
                    <circle id="Oval-32-Copy-53" transform="translate(326.027821, 1135.109237) rotate(-210.000000) translate(-326.027821, -1135.109237) " cx="326.027821" cy="1135.10924" r="5"></circle>
                    <circle id="Oval-32-Copy-6" cx="826" cy="5" r="5"></circle>
                    <circle id="Oval-32-Copy-7" cx="715" cy="178" r="5"></circle>
                    <circle id="Oval-32-Copy-18" cx="891" cy="213" r="5"></circle>
                    <circle id="Oval-32-Copy-14" cx="1019" cy="250" r="5"></circle>
                    <circle id="Oval-32-Copy-15" cx="1082" cy="91" r="5"></circle>
                    <circle id="Oval-32-Copy-6" transform="translate(310.883532, 881.123660) rotate(115.000000) translate(-310.883532, -881.123660) " cx="310.883532" cy="881.12366" r="5"></circle>
                    <circle id="Oval-32-Copy-7" transform="translate(1042.002911, 452.410536) rotate(115.000000) translate(-1042.002911, -452.410536) " cx="1042.00291" cy="452.410536" r="5"></circle>
                    <circle id="Oval-32-Copy-8" transform="translate(164.767618, 953.117686) rotate(115.000000) translate(-164.767618, -953.117686) " cx="164.767618" cy="953.117686" r="5"></circle>
                    <circle id="Oval-32-Copy-13" transform="translate(39.277029, 699.302572) rotate(115.000000) translate(-39.277029, -699.302572) " cx="39.2770295" cy="699.302572" r="5"></circle>
                    <circle id="Oval-32-Copy-14" transform="translate(7.272799, 952.499588) rotate(115.000000) translate(-7.272799, -952.499588) " cx="7.27279924" cy="952.499588" r="5"></circle>
                    <circle id="Oval-32-Copy-15" transform="translate(124.750787, 1076.793283) rotate(115.000000) translate(-124.750787, -1076.793283) " cx="124.750787" cy="1076.79328" r="5"></circle>
                    <circle id="Oval-32-Copy-25" transform="translate(702.112922, 589.011836) rotate(118.000000) translate(-702.112922, -589.011836) " cx="702.112922" cy="589.011836" r="5"></circle>
                    <circle id="Oval-32-Copy-22" transform="translate(569.797221, 837.619066) rotate(193.000000) translate(-569.797221, -837.619066) " cx="569.797221" cy="837.619066" r="5"></circle>
                    <circle id="Oval-32-Copy-27" transform="translate(944.973668, 874.962861) rotate(118.000000) translate(-944.973668, -874.962861) " cx="944.973668" cy="874.962861" r="5"></circle>
                    <circle id="Oval-32-Copy-31" transform="translate(651.498935, 808.245100) rotate(118.000000) translate(-651.498935, -808.245100) " cx="651.498935" cy="808.2451" r="5"></circle>
                    <circle id="Oval-32-Copy-50" transform="translate(677.834277, 358.027277) rotate(118.000000) translate(-677.834277, -358.027277) " cx="677.834277" cy="358.027277" r="5"></circle>
                    <circle id="Oval-32-Copy-36" transform="translate(306.516169, 524.365036) rotate(118.000000) translate(-306.516169, -524.365036) " cx="306.516169" cy="524.365036" r="5"></circle>
                    <circle id="Oval-32-Copy-37" transform="translate(209.363637, 665.117960) rotate(118.000000) translate(-209.363637, -665.117960) " cx="209.363637" cy="665.11796" r="5"></circle>
                    <circle id="Oval-32-Copy-38" transform="translate(786.866822, 782.024210) rotate(118.000000) translate(-786.866822, -782.024210) " cx="786.866822" cy="782.02421" r="5"></circle>
                </g>
            </g>
        </g>
    </g>
</svg>