<?xml version="1.0" encoding="utf-8"?>
<!-- Generator: Adobe Illustrator 16.0.0, SVG Export Plug-In . SVG Version: 6.00 Build 0)  -->
<!DOCTYPE svg PUBLIC "-//W3C//DTD SVG 1.1//EN" "http://www.w3.org/Graphics/SVG/1.1/DTD/svg11.dtd">
<svg version="1.1" id="Layer_1" xmlns="http://www.w3.org/2000/svg" xmlns:xlink="http://www.w3.org/1999/xlink" x="0px" y="0px"
	 width="473px" height="468px" viewBox="69.5 160.5 473 468" enable-background="new 69.5 160.5 473 468" xml:space="preserve">
<path fill="#1C447F" d="M-97.185,2113.948h-54.283c-9.923,0-18.094,8.756-18.094,18.97v144.464h36.188v-56.91h38.524
	c31.811,0,51.073-19.845,51.073-53.407C-44.069,2132.335-62.455,2113.948-97.185,2113.948 M-80.257,2166.772
	c0,7.004-1.751,12.258-5.253,15.76c-3.794,3.794-9.631,5.545-17.511,5.545h-30.06v-42.609h31.52
	C-87.262,2145.468-80.257,2152.472-80.257,2166.772"/>
<path fill="#1C447F" d="M-28.309,2132.918v144.464H7.88v-163.434h-18.094C-21.888,2113.948-28.309,2120.661-28.309,2132.918"/>
<path fill="#1C447F" d="M99.228,2113.948H53.116c-11.965,0.292-18.094,6.713-18.094,18.97v144.464h55.451
	c14.3,0,25.974-1.167,34.438-3.21c30.644-8.172,49.03-37.648,49.03-78.507C173.94,2141.382,148.549,2113.948,99.228,2113.948
	 M136.875,2195.665c0,35.021-12.257,49.322-42.026,49.322H70.626v-99.52h28.601C125.202,2145.468,136.875,2160.936,136.875,2195.665
	"/>
<path fill="#1C447F" d="M283.966,2113.948c-7.588,0-13.133,3.503-16.635,10.799l-25.391,55.742l-33.271-66.541h-44.36
	l59.245,102.438v60.996h36.772v-60.996l53.699-102.438H283.966z"/>
<path fill="#D41000" d="M86.97,2069.004c0,15.176-12.257,27.434-27.433,27.434c-15.176,0-27.434-12.258-27.434-27.434
	s12.257-27.434,27.434-27.434C74.712,2041.57,86.97,2053.828,86.97,2069.004"/>
<path fill="#D41000" d="M-212.172,2116.283c-42.317-77.339-139.502-105.939-216.841-63.622
	c-37.356,20.429-64.79,54.283-76.755,95.142c-11.966,40.858-7.296,84.051,13.133,121.699c9.923,18.387,23.348,34.438,39.107,47.279
	l8.463-14.593c6.129-10.798,19.846-14.3,30.352-8.171l4.961,2.918c10.798,6.129,14.3,19.846,8.171,30.352l-8.463,14.885
	c4.086,1.459,8.172,2.918,12.549,4.377c14.884,4.378,30.06,6.421,45.236,6.421c26.266,0,52.532-6.712,76.463-19.554
	c37.356-20.429,64.79-54.283,76.755-95.142C-187.073,2196.832-191.451,2153.64-212.172,2116.283 M-253.614,2221.64
	c-7.88,26.266-25.391,48.154-49.322,61.287c-24.223,13.133-51.949,16.052-78.215,8.464c-26.266-7.88-48.154-25.391-61.288-49.322
	c-13.133-24.223-16.051-51.948-8.463-78.215c7.88-26.266,25.391-48.154,49.322-61.287c15.468-8.464,32.395-12.549,49.03-12.549
	c36.48,0,71.794,19.262,90.472,53.407C-248.944,2167.648-246.026,2195.373-253.614,2221.64"/>
<path fill="#FFFFFF" d="M-97.185,1138.893h-54.283c-9.923,0-18.094,8.756-18.094,18.97v144.464h36.188v-56.91h38.524
	c31.811,0,51.073-19.846,51.073-53.407C-44.069,1157.57-62.455,1138.893-97.185,1138.893 M-80.257,1191.717
	c0,7.004-1.751,12.258-5.253,15.76c-3.794,3.794-9.631,5.545-17.511,5.545h-30.06v-42.901h31.52
	C-87.262,1170.412-80.257,1177.416-80.257,1191.717"/>
<path fill="#FFFFFF" d="M-28.309,1157.862v144.464H7.88v-163.434h-18.094C-21.888,1138.893-28.309,1145.605-28.309,1157.862"/>
<path fill="#FFFFFF" d="M99.228,1138.893H53.116c-11.965,0.292-18.094,6.713-18.094,18.97v144.464h55.451
	c14.3,0,25.974-1.167,34.438-3.21c30.644-8.172,49.03-37.648,49.03-78.507C173.94,1166.618,148.549,1138.893,99.228,1138.893
	 M136.875,1220.901c0,35.021-12.257,49.321-42.026,49.321H70.626v-99.519h28.601
	C125.202,1170.704,136.875,1186.172,136.875,1220.901"/>
<path fill="#FFFFFF" d="M283.966,1138.893c-7.588,0-13.133,3.502-16.635,10.799l-25.391,56.034l-33.271-66.541h-44.36
	l59.245,102.438v60.996h36.772v-60.996l53.699-102.438h-30.06V1138.893z"/>
<path fill="#D41000" d="M86.97,1093.948c0,15.176-12.257,27.434-27.433,27.434c-15.176,0-27.434-12.258-27.434-27.434
	s12.257-27.434,27.434-27.434C74.712,1066.515,86.97,1078.772,86.97,1093.948"/>
<path fill="#D41000" d="M-212.172,1141.228c-42.317-77.339-139.502-105.94-216.841-63.622
	c-37.356,20.429-64.79,54.283-76.755,95.142c-11.966,40.858-7.296,84.051,13.133,121.699c9.923,18.387,23.348,34.438,39.107,47.279
	l8.463-14.593c6.129-10.798,19.846-14.3,30.352-8.172l4.961,2.919c10.798,6.129,14.3,19.846,8.171,30.352l-8.463,14.885
	c4.086,1.459,8.172,2.918,12.549,4.378c14.884,4.377,30.06,6.42,45.236,6.42c26.266,0,52.532-6.712,76.463-19.554
	c37.356-20.429,64.79-54.283,76.755-95.142C-187.073,1221.776-191.451,1178.584-212.172,1141.228 M-253.614,1246.584
	c-7.88,26.266-25.391,48.154-49.322,61.287c-24.223,13.133-51.949,16.052-78.215,8.464c-26.266-7.88-48.154-25.391-61.288-49.322
	c-13.133-24.223-16.051-51.948-8.463-78.215c7.88-26.266,25.391-48.154,49.322-61.287c15.468-8.464,32.395-12.55,49.03-12.55
	c36.48,0,71.794,19.263,90.472,53.408C-248.944,1192.592-246.026,1220.317-253.614,1246.584"/>
<path fill="#13284D" d="M-97.185,5039.115h-54.283c-9.923,0-18.094,8.756-18.094,18.971v144.463h36.188v-56.91h38.524
	c31.811,0,51.073-19.845,51.073-53.407C-44.069,5057.502-62.455,5039.115-97.185,5039.115 M-80.257,5091.939
	c0,7.004-1.751,12.258-5.253,15.76c-3.794,3.795-9.631,5.545-17.511,5.545h-30.06v-42.9h31.52
	C-87.262,5070.344-80.257,5077.348-80.257,5091.939"/>
<path fill="#13284D" d="M-28.309,5058.086v144.463H7.88v-163.434h-18.094C-21.888,5039.115-28.309,5045.536-28.309,5058.086"/>
<path fill="#13284D" d="M99.228,5039.115H53.116c-11.965,0.293-18.094,6.713-18.094,18.971v144.463h55.451
	c14.3,0,25.974-1.167,34.438-3.21c30.644-8.172,49.03-37.647,49.03-78.507C173.94,5066.549,148.549,5039.115,99.228,5039.115
	 M136.875,5120.832c0,35.021-12.257,49.322-42.026,49.322H70.626v-99.52h28.601C125.202,5070.635,136.875,5086.104,136.875,5120.832
	"/>
<path fill="#13284D" d="M283.966,5039.115c-7.588,0-13.133,3.502-16.635,10.799l-25.391,55.742l-33.271-66.541h-44.36
	l59.245,102.438v60.996h36.772v-60.996l53.699-102.438H283.966L283.966,5039.115z"/>
<path fill="#D41000" d="M86.97,4993.88c0,15.176-12.257,27.434-27.433,27.434c-15.176,0-27.434-12.258-27.434-27.434
	c0-15.177,12.257-27.434,27.434-27.434C74.712,4966.446,86.97,4978.704,86.97,4993.88"/>
<path fill="#D41000" d="M-212.172,5041.158c-42.317-77.339-139.502-105.939-216.841-63.622
	c-37.356,20.429-64.79,54.283-76.755,95.142c-11.966,40.858-7.296,84.052,13.133,121.699c9.923,18.387,23.348,34.438,39.107,47.279
	l8.463-14.593c6.129-10.798,19.846-14.3,30.352-8.172l4.961,2.919c10.798,6.129,14.3,19.846,8.171,30.352l-8.463,14.885
	c4.086,1.459,8.172,2.918,12.549,4.377c14.884,4.378,30.06,6.42,45.236,6.42c26.266,0,52.532-6.712,76.463-19.553
	c37.356-20.43,64.79-54.283,76.755-95.142C-187.073,5121.708-191.451,5078.515-212.172,5041.158 M-253.614,5146.807
	c-7.88,26.266-25.391,48.154-49.322,61.287c-24.223,13.134-51.949,16.053-78.215,8.465c-26.266-7.881-48.154-25.391-61.288-49.322
	c-13.133-24.224-16.051-51.949-8.463-78.215c7.88-26.266,25.391-48.154,49.322-61.287c15.468-8.465,32.395-12.551,49.03-12.551
	c36.48,0,71.794,19.262,90.472,53.408C-248.944,5092.523-246.026,5120.249-253.614,5146.807"/>
<path fill="#145FA3" d="M-97.185,3089.004h-54.283c-9.923,0-18.094,8.756-18.094,18.971v144.463h36.188v-56.91h38.524
	c31.811,0,51.073-19.845,51.073-53.407C-44.069,3107.391-62.455,3089.004-97.185,3089.004 M-80.257,3141.828
	c0,7.005-1.751,12.258-5.253,15.76c-3.794,3.794-9.631,5.545-17.511,5.545h-30.06v-42.901h31.52
	C-87.262,3120.231-80.257,3127.236-80.257,3141.828"/>
<path fill="#145FA3" d="M-28.309,3107.975v144.463H7.88v-163.434h-18.094C-21.888,3089.004-28.309,3095.717-28.309,3107.975"/>
<path fill="#145FA3" d="M99.228,3089.004H53.116c-11.965,0.292-18.094,6.713-18.094,18.971v144.463h55.451
	c14.3,0,25.974-1.167,34.438-3.21c30.644-8.172,49.03-37.648,49.03-78.507C173.94,3116.438,148.549,3089.004,99.228,3089.004
	 M136.875,3170.721c0,35.021-12.257,49.322-42.026,49.322H70.626v-99.52h28.601C125.202,3120.523,136.875,3135.991,136.875,3170.721
	"/>
<path fill="#145FA3" d="M283.966,3089.004c-7.588,0-13.133,3.502-16.635,10.799l-25.391,55.742l-33.271-66.541h-44.36
	l59.245,102.438v60.996h36.772v-60.996l53.699-102.438H283.966L283.966,3089.004z"/>
<path fill="#D41000" d="M86.97,3044.061c0,15.176-12.257,27.434-27.433,27.434c-15.176,0-27.434-12.258-27.434-27.434
	c0-15.177,12.257-27.434,27.434-27.434C74.712,3016.627,86.97,3028.884,86.97,3044.061"/>
<path fill="#D41000" d="M-212.172,3091.047c-42.317-77.339-139.502-105.939-216.841-63.622
	c-37.356,20.429-64.79,54.283-76.755,95.142c-11.966,40.858-7.296,84.052,13.133,121.699c9.923,18.387,23.348,34.438,39.107,47.279
	l8.463-14.592c6.129-10.799,19.846-14.301,30.352-8.172l4.961,2.918c10.798,6.129,14.3,19.846,8.171,30.352l-8.463,14.885
	c4.086,1.459,8.172,2.918,12.549,4.377c14.884,4.378,30.06,6.421,45.236,6.421c26.266,0,52.532-6.713,76.463-19.554
	c37.356-20.429,64.79-54.283,76.755-95.142C-187.073,3171.889-191.451,3128.695-212.172,3091.047 M-253.614,3196.695
	c-7.88,26.266-25.391,48.154-49.322,61.287c-24.223,13.133-51.949,16.052-78.215,8.464c-26.266-7.88-48.154-25.391-61.288-49.322
	c-13.133-24.224-16.051-51.948-8.463-78.215c7.88-26.266,25.391-48.154,49.322-61.287c15.468-8.464,32.395-12.55,49.03-12.55
	c36.48,0,71.794,19.262,90.472,53.408C-248.944,3142.703-246.026,3170.429-253.614,3196.695"/>
<path fill="#0581C2" d="M-97.185,4064.061h-54.283c-9.923,0-18.094,8.755-18.094,18.97v144.463h36.188v-56.909h38.524
	c31.811,0,51.073-19.846,51.073-53.408C-44.069,4082.446-62.455,4064.061-97.185,4064.061 M-80.257,4116.884
	c0,7.005-1.751,12.258-5.253,15.76c-3.794,3.794-9.631,5.546-17.511,5.546h-30.06v-42.901h31.52
	C-87.262,4095.287-80.257,4102.292-80.257,4116.884"/>
<path fill="#0581C2" d="M-28.309,4083.03v144.463H7.88v-163.433h-18.094C-21.888,4064.061-28.309,4070.48-28.309,4083.03"/>
<path fill="#0581C2" d="M99.228,4064.061H53.116c-11.965,0.291-18.094,6.712-18.094,18.97v144.463h55.451
	c14.3,0,25.974-1.167,34.438-3.21c30.644-8.172,49.03-37.648,49.03-78.506C173.94,4091.494,148.549,4064.061,99.228,4064.061
	 M136.875,4145.777c0,35.021-12.257,49.321-42.026,49.321H70.626v-99.519h28.601
	C125.202,4095.579,136.875,4111.047,136.875,4145.777"/>
<path fill="#0581C2" d="M283.966,4064.061c-7.588,0-13.133,3.502-16.635,10.798l-25.391,55.742l-33.271-66.541h-44.36
	l59.245,102.438v60.996h36.772v-60.996l53.699-102.438L283.966,4064.061L283.966,4064.061z"/>
<path fill="#D41000" d="M86.97,4018.824c0,15.176-12.257,27.434-27.433,27.434c-15.176,0-27.434-12.258-27.434-27.434
	c0-15.177,12.257-27.434,27.434-27.434C74.712,3991.391,86.97,4003.939,86.97,4018.824"/>
<path fill="#D41000" d="M-212.172,4066.103c-42.317-77.339-139.502-105.939-216.841-63.622
	c-37.356,20.429-64.79,54.283-76.755,95.142c-11.966,40.858-7.296,84.052,13.133,121.699c9.923,18.387,23.348,34.438,39.107,47.278
	l8.463-14.592c6.129-10.798,19.846-14.301,30.352-8.172l4.961,2.919c10.798,6.128,14.3,19.845,8.171,30.352l-8.463,14.884
	c4.086,1.459,8.172,2.919,12.549,4.378c14.884,4.378,30.06,6.421,45.236,6.421c26.266,0,52.532-6.713,76.463-19.554
	c37.356-20.429,64.79-54.283,76.755-95.142C-187.073,4146.944-191.451,4103.751-212.172,4066.103 M-253.614,4171.751
	c-7.88,26.267-25.391,48.154-49.322,61.288c-24.223,13.133-51.949,16.051-78.215,8.463c-26.266-7.879-48.154-25.391-61.288-49.322
	c-13.133-24.223-16.051-51.948-8.463-78.214c7.88-26.267,25.391-48.155,49.322-61.288c15.468-8.463,32.395-12.549,49.03-12.549
	c36.48,0,71.794,19.262,90.472,53.407C-248.944,4117.468-246.026,4145.485-253.614,4171.751"/>
<path fill="#253D84" d="M-97.185,6014.172h-54.283c-9.923,0-18.094,8.755-18.094,18.97v144.464h36.188v-56.91h38.524
	c31.811,0,51.073-19.846,51.073-53.408C-44.069,6032.558-62.455,6014.172-97.185,6014.172 M-80.257,6066.703
	c0,7.005-1.751,12.258-5.253,15.76c-3.794,3.795-9.631,5.545-17.511,5.545h-30.06v-42.9h31.52
	C-87.262,6045.398-80.257,6052.403-80.257,6066.703"/>
<path fill="#253D84" d="M-28.309,6032.85v144.463H7.88V6013.88h-18.094C-21.888,6014.172-28.309,6020.592-28.309,6032.85"/>
<path fill="#253D84" d="M99.228,6014.172H53.116c-11.965,0.291-18.094,6.713-18.094,18.97v144.464h55.451
	c14.3,0,25.974-1.168,34.438-3.211c30.644-8.172,49.03-37.647,49.03-78.506C173.94,6041.605,148.549,6014.172,99.228,6014.172
	 M136.875,6095.889c0,35.021-12.257,49.321-42.026,49.321H70.626v-99.519h28.601
	C125.202,6045.691,136.875,6061.158,136.875,6095.889"/>
<path fill="#253D84" d="M283.966,6014.172c-7.588,0-13.133,3.502-16.635,10.798l-25.391,55.742l-33.271-66.541h-44.36
	l59.245,102.438v60.995h36.772v-60.995l53.699-102.438H283.966z"/>
<path fill="#D41000" d="M86.97,5968.936c0,15.176-12.257,27.434-27.433,27.434c-15.176,0-27.434-12.258-27.434-27.434
	s12.257-27.434,27.434-27.434C74.712,5941.502,86.97,5953.76,86.97,5968.936"/>
<path fill="#D41000" d="M-212.172,6016.215c-42.317-77.34-139.502-105.94-216.841-63.623c-37.356,20.43-64.79,54.283-76.755,95.143
	c-11.966,40.857-7.296,84.051,13.133,121.699c9.923,18.387,23.348,34.438,39.107,47.279l8.463-14.593
	c6.129-10.798,19.846-14.3,30.352-8.172l4.961,2.919c10.798,6.129,14.3,19.846,8.171,30.352l-8.463,14.884
	c4.086,1.46,8.172,2.919,12.549,4.378c14.884,4.377,30.06,6.42,45.236,6.42c26.266,0,52.532-6.712,76.463-19.553
	c37.356-20.43,64.79-54.283,76.755-95.143C-187.073,6096.764-191.451,6053.57-212.172,6016.215 M-253.614,6121.862
	c-7.88,26.267-25.391,48.155-49.322,61.288c-24.223,13.133-51.949,16.051-78.215,8.463c-26.266-7.88-48.154-25.391-61.288-49.322
	c-13.133-24.223-16.051-51.947-8.463-78.214c7.88-26.267,25.391-48.155,49.322-61.288c15.468-8.463,32.395-12.549,49.03-12.549
	c36.48,0,71.794,19.262,90.472,53.408C-248.944,6067.579-246.026,6095.305-253.614,6121.862"/>
<path fill="#D41000" d="M-302.936-382.498c-60.412-110.609-199.623-151.468-310.232-91.348
	c-53.7,29.185-92.515,77.631-109.734,136.292s-10.506,120.532,18.678,173.94c14.3,26.266,33.271,49.03,56.034,67.708l11.966-21.013
	c8.755-15.176,28.309-20.429,43.485-11.674l7.296,4.086c15.176,8.755,20.43,28.309,11.674,43.485l-12.257,21.013
	c5.837,2.335,11.674,4.378,17.803,6.129c21.305,6.421,43.193,9.339,64.79,9.339c37.648,0,75.004-9.339,109.15-28.017
	c53.7-29.185,92.515-77.631,109.734-136.292C-267.039-266.927-273.459-328.798-302.936-382.498 M-362.472-231.322
	c-11.09,37.648-36.189,68.875-70.626,87.553c-34.438,18.678-74.129,23.056-111.777,11.966
	c-37.648-11.09-68.875-36.188-87.554-70.626s-23.056-74.129-11.966-111.777c11.09-37.648,36.189-68.875,70.627-87.554
	c22.18-12.257,46.403-17.803,70.042-17.803c52.241,0,102.73,27.726,129.288,76.464C-355.76-308.953-351.382-268.97-362.472-231.322"
	/>
<path fill="#FFFFFF" d="M-302.936,286.12c-60.412-110.609-199.331-151.468-310.232-91.056
	c-53.7,29.185-92.515,77.631-109.734,136.292c-17.219,58.661-10.506,120.533,18.678,173.94c14.3,26.267,33.271,49.03,56.034,67.708
	l11.966-21.013c8.755-15.176,28.309-20.429,43.485-11.674l7.296,4.086c15.176,8.756,20.43,28.309,11.674,43.485l-12.257,21.013
	c5.837,2.335,11.674,4.378,17.803,6.129c21.305,6.42,43.193,9.339,64.79,9.339c37.648,0,75.004-9.339,109.15-28.018
	c53.7-29.185,92.515-77.631,109.734-136.292C-267.039,401.691-273.459,339.82-302.936,286.12 M-362.472,437.296
	c-11.09,37.648-36.189,68.876-70.626,87.554c-34.438,18.678-74.129,23.056-111.777,11.966s-68.875-36.188-87.554-70.627
	c-18.678-34.438-23.056-74.128-11.966-111.776c11.09-37.648,36.189-68.875,70.627-87.554c22.18-12.258,46.403-17.803,70.042-17.803
	c52.241,0,102.73,27.726,129.288,76.464C-355.76,359.665-351.382,399.648-362.472,437.296"/>
<path fill="#D41000" d="M507.812,286.12C447.399,175.511,308.48,134.652,197.58,195.064
	c-53.408,29.185-92.515,77.631-109.734,136.292c-17.219,58.661-10.507,120.533,18.678,173.94
	c14.301,26.267,33.271,49.03,56.035,67.708l11.965-21.013c8.755-15.176,28.309-20.429,43.485-11.674l7.296,4.086
	c15.176,8.756,20.429,28.309,11.674,43.485l-12.257,21.013c5.837,2.335,11.674,4.378,17.802,6.129
	c21.305,6.42,43.193,9.339,64.79,9.339c37.647,0,75.004-9.339,109.15-28.018c53.699-29.185,92.515-77.631,109.733-136.292
	C543.708,401.691,537.287,339.82,507.812,286.12 M448.274,437.296c-11.09,37.648-36.188,68.876-70.626,87.554
	c-34.438,18.678-74.129,23.056-111.777,11.966c-37.648-11.09-68.875-36.188-87.554-70.627
	c-18.678-34.438-23.056-74.128-11.965-111.776c11.09-37.648,36.189-68.875,70.626-87.554c22.18-12.258,46.403-17.803,70.043-17.803
	c52.24,0,102.729,27.726,129.287,76.464C454.987,359.665,459.365,399.648,448.274,437.296"/>
</svg>
