<svg display="none" width="0" height="0" version="1.1" xmlns="http://www.w3.org/2000/svg">
<defs>
<symbol id="icon-menu" viewBox="0 0 1024 1024">
	<title>menu</title>
	<path class="path1" d="M128 213.333h768q17.667 0 30.167 12.5t12.5 30.167-12.5 30.167-30.167 12.5h-768q-17.667 0-30.167-12.5t-12.5-30.167 12.5-30.167 30.167-12.5zM128 725.333h768q17.667 0 30.167 12.5t12.5 30.167-12.5 30.167-30.167 12.5h-768q-17.667 0-30.167-12.5t-12.5-30.167 12.5-30.167 30.167-12.5zM128 469.333h768q17.667 0 30.167 12.5t12.5 30.167-12.5 30.167-30.167 12.5h-768q-17.667 0-30.167-12.5t-12.5-30.167 12.5-30.167 30.167-12.5z"></path>
</symbol>
<symbol id="icon-lock" viewBox="0 0 1024 1024">
	<title>lock</title>
	<path class="path1" d="M512 42.667q69.667 0 128.5 34.333t93.167 93.167 34.333 128.5v170.667h85.333q53 0 90.5 37.5t37.5 90.5v256q0 53-37.5 90.5t-90.5 37.5h-682.667q-53 0-90.5-37.5t-37.5-90.5v-256q0-53 37.5-90.5t90.5-37.5h85.333v-170.667q0-69.667 34.333-128.5t93.167-93.167 128.5-34.333zM853.333 554.667h-682.667q-17.667 0-30.167 12.5t-12.5 30.167v256q0 17.667 12.5 30.167t30.167 12.5h682.667q17.667 0 30.167-12.5t12.5-30.167v-256q0-17.667-12.5-30.167t-30.167-12.5zM512 128q-70.667 0-120.667 50t-50 120.667v170.667h341.333v-170.667q0-70.667-50-120.667t-120.667-50z"></path>
</symbol>
<symbol id="icon-eye" viewBox="0 0 1024 1024">
	<title>eye</title>
	<path class="path1" d="M512 128q69.667 0 135.5 21.167t115.5 55 93.5 74.833 73.667 82 51.667 74.833 32.167 54.833l10 21.333q-2.333 5-6.333 13.5t-18.833 34.667-31.667 51.667-44.333 60-56.833 64.333-69.5 60.167-82.333 51.5-94.833 34.667-107.333 13.5q-69.667 0-135.5-21.167t-115.5-54.833-93.5-74.333-73.667-81.5-51.667-74.5-32.167-55l-10-21q2.333-5 6.333-13.5t18.833-34.833 31.667-51.833 44.333-60.333 56.833-64.667 69.5-60.333 82.333-51.833 94.833-34.833 107.333-13.5zM512 213.333q-46.667 0-91.667 12.333t-81.167 31.833-70.667 47.167-59.667 54.5-48.833 57.667-37.667 52.833-26.333 44q12.333 21.667 26.333 43.5t37.667 52.333 48.833 57 59.667 53.833 70.667 46.667 81.167 31.5 91.667 12.167 91.667-12.333 81.167-31.667 70.667-46.833 59.667-54.167 48.833-57.333 37.667-52.667 26.333-43.667q-12.333-21.667-26.333-43.667t-37.667-52.667-48.833-57.333-59.667-54.167-70.667-46.833-81.167-31.667-91.667-12.333zM512 341.333q70.667 0 120.667 50t50 120.667-50 120.667-120.667 50-120.667-50-50-120.667 50-120.667 120.667-50zM512 426.667q-35.333 0-60.333 25t-25 60.333 25 60.333 60.333 25 60.333-25 25-60.333-25-60.333-60.333-25z"></path>
</symbol>
<symbol id="icon-head" viewBox="0 0 1024 1024">
	<title>head</title>
	<path class="path1" d="M512 0q69.667 0 128.5 34.333t93.167 93.167 34.333 128.5v128q0 53.333-20.667 101t-57.667 83q97.333 15.333 173 45.167t118.5 70.5 42.833 85.667v84q0 53-37.5 90.5t-90.5 37.5h-768q-53 0-90.5-37.5t-37.5-90.5v-84.333q0-45 42.833-85.667t118.333-70.5 172.833-44.833q-36.667-35.667-57.333-83.167t-20.667-100.833v-128q0-69.667 34.333-128.5t93.167-93.167 128.5-34.333zM512 640q-92.667 0-178.833 14.833t-150.167 41.5q-25.667 10.667-45.833 22.667t-30.667 21.667-15.833 16.833-5.333 11.5v84.333q0 17.667 12.5 30.167t30.167 12.5h768q17.667 0 30.167-12.5t12.5-30.167v-84q0-4.333-5.333-11.5t-15.833-16.833-30.667-21.667-45.833-23q-64-26.667-150.167-41.5t-178.833-14.833zM512 85.333q-70.667 0-120.667 50t-50 120.667v128q0 70.667 50 120.667t120.667 50 120.667-50 50-120.667v-128q0-70.667-50-120.667t-120.667-50z"></path>
</symbol>
<symbol id="icon-box" viewBox="0 0 1024 1024">
	<title>box</title>
	<path class="path1" d="M42.667 213.333l469.333-213.333 469.333 213.333v597.333l-469.333 213.333-469.333-213.333v-597.333zM469.333 454l-341.333-155v456.667l341.333 155.333v-457zM896 755.667v-456.667l-341.333 155v457zM826.667 236.667l-314.667-143-314.667 143 314.667 143z"></path>
</symbol>
<symbol id="icon-facebook" viewBox="0 0 1024 1024">
	<title>facebook</title>
	<path class="path1" d="M870.4 51.2h-716.8c-56.32 0-102.4 46.080-102.4 102.4v716.8c0 56.371 46.080 102.4 102.4 102.4h358.4v-358.4h-102.4v-126.72h102.4v-104.96c0-110.797 62.054-188.621 192.819-188.621l92.314 0.102v133.376h-61.286c-50.893 0-70.246 38.195-70.246 73.626v86.528h131.482l-29.082 126.669h-102.4v358.4h204.8c56.32 0 102.4-46.029 102.4-102.4v-716.8c0-56.32-46.080-102.4-102.4-102.4z"></path>
</symbol>
<symbol id="icon-instagram" viewBox="0 0 1024 1024">
	<title>instagram</title>
	<path class="path1" d="M870.4 51.2h-716.8c-56.32 0-102.4 46.080-102.4 102.4v716.8c0 56.371 46.080 102.4 102.4 102.4h716.8c56.32 0 102.4-46.029 102.4-102.4v-716.8c0-56.32-46.080-102.4-102.4-102.4zM511.181 794.778c156.621 0 283.546-127.027 283.546-283.597 0-17.306-2.202-33.997-5.274-50.381h80.947v369.459c0 19.558-15.872 35.328-35.482 35.328h-645.837c-19.61 0-35.482-15.77-35.482-35.328v-369.459h79.309c-3.123 16.384-5.325 33.075-5.325 50.381 0 156.621 127.027 283.597 283.597 283.597zM333.978 511.181c0-97.894 79.36-177.203 177.254-177.203 97.843 0 177.254 79.309 177.254 177.203s-79.411 177.254-177.254 177.254c-97.946 0-177.254-79.36-177.254-177.254zM834.918 307.2h-82.688c-19.558 0-35.43-15.974-35.43-35.43v-82.79c0-19.558 15.872-35.379 35.379-35.379h82.688c19.661 0 35.533 15.821 35.533 35.379v82.739c0 19.507-15.872 35.482-35.482 35.482z"></path>
</symbol>
<symbol id="icon-twitter" viewBox="0 0 1024 1024">
	<title>twitter</title>
	<path class="path1" d="M886.579 319.795c0.41 8.294 0.563 16.691 0.563 24.986 0 255.488-194.406 549.99-549.888 549.99-109.21 0-210.739-32-296.294-86.886 15.155 1.792 30.515 2.714 46.080 2.714 90.624 0 173.926-30.925 240.026-82.688-84.531-1.587-155.955-57.395-180.531-134.195 11.776 2.202 23.91 3.379 36.352 3.379 17.664 0 34.765-2.304 50.944-6.707-88.422-17.818-155.034-95.898-155.034-189.594 0-0.819 0-1.587 0-2.406 26.061 14.49 55.91 23.194 87.552 24.218-51.866-34.714-86.016-93.798-86.016-160.922 0-35.379 9.523-68.608 26.214-97.178 95.283 116.992 237.773 193.894 398.387 201.984-3.277-14.182-4.966-28.877-4.966-44.083 0-106.701 86.477-193.178 193.229-193.178 55.603 0 105.83 23.398 141.107 60.979 43.981-8.704 85.35-24.781 122.726-46.899-14.438 45.107-45.107 82.995-84.992 106.906 39.117-4.71 76.288-15.002 111.002-30.413-25.907 38.81-58.675 72.806-96.461 99.994z"></path>
</symbol>
</defs>
</svg>
