<svg display="none" width="0" height="0" version="1.1" xmlns="http://www.w3.org/2000/svg">
<defs>
<symbol id="icon-menu" viewBox="0 0 1024 1024">
	<title>menu</title>
	<path class="path1" d="M128 213.333h768q17.667 0 30.167 12.5t12.5 30.167-12.5 30.167-30.167 12.5h-768q-17.667 0-30.167-12.5t-12.5-30.167 12.5-30.167 30.167-12.5zM128 725.333h768q17.667 0 30.167 12.5t12.5 30.167-12.5 30.167-30.167 12.5h-768q-17.667 0-30.167-12.5t-12.5-30.167 12.5-30.167 30.167-12.5zM128 469.333h768q17.667 0 30.167 12.5t12.5 30.167-12.5 30.167-30.167 12.5h-768q-17.667 0-30.167-12.5t-12.5-30.167 12.5-30.167 30.167-12.5z"></path>
</symbol>
<symbol id="icon-lock" viewBox="0 0 1024 1024">
	<title>lock</title>
	<path class="path1" d="M512 42.667q69.667 0 128.5 34.333t93.167 93.167 34.333 128.5v170.667h85.333q53 0 90.5 37.5t37.5 90.5v256q0 53-37.5 90.5t-90.5 37.5h-682.667q-53 0-90.5-37.5t-37.5-90.5v-256q0-53 37.5-90.5t90.5-37.5h85.333v-170.667q0-69.667 34.333-128.5t93.167-93.167 128.5-34.333zM853.333 554.667h-682.667q-17.667 0-30.167 12.5t-12.5 30.167v256q0 17.667 12.5 30.167t30.167 12.5h682.667q17.667 0 30.167-12.5t12.5-30.167v-256q0-17.667-12.5-30.167t-30.167-12.5zM512 128q-70.667 0-120.667 50t-50 120.667v170.667h341.333v-170.667q0-70.667-50-120.667t-120.667-50z"></path>
</symbol>
<symbol id="icon-eye" viewBox="0 0 1024 1024">
	<title>eye</title>
	<path class="path1" d="M512 128q69.667 0 135.5 21.167t115.5 55 93.5 74.833 73.667 82 51.667 74.833 32.167 54.833l10 21.333q-2.333 5-6.333 13.5t-18.833 34.667-31.667 51.667-44.333 60-56.833 64.333-69.5 60.167-82.333 51.5-94.833 34.667-107.333 13.5q-69.667 0-135.5-21.167t-115.5-54.833-93.5-74.333-73.667-81.5-51.667-74.5-32.167-55l-10-21q2.333-5 6.333-13.5t18.833-34.833 31.667-51.833 44.333-60.333 56.833-64.667 69.5-60.333 82.333-51.833 94.833-34.833 107.333-13.5zM512 213.333q-46.667 0-91.667 12.333t-81.167 31.833-70.667 47.167-59.667 54.5-48.833 57.667-37.667 52.833-26.333 44q12.333 21.667 26.333 43.5t37.667 52.333 48.833 57 59.667 53.833 70.667 46.667 81.167 31.5 91.667 12.167 91.667-12.333 81.167-31.667 70.667-46.833 59.667-54.167 48.833-57.333 37.667-52.667 26.333-43.667q-12.333-21.667-26.333-43.667t-37.667-52.667-48.833-57.333-59.667-54.167-70.667-46.833-81.167-31.667-91.667-12.333zM512 341.333q70.667 0 120.667 50t50 120.667-50 120.667-120.667 50-120.667-50-50-120.667 50-120.667 120.667-50zM512 426.667q-35.333 0-60.333 25t-25 60.333 25 60.333 60.333 25 60.333-25 25-60.333-25-60.333-60.333-25z"></path>
</symbol>
<symbol id="icon-head" viewBox="0 0 1024 1024">
	<title>head</title>
	<path class="path1" d="M512 0q69.667 0 128.5 34.333t93.167 93.167 34.333 128.5v128q0 53.333-20.667 101t-57.667 83q97.333 15.333 173 45.167t118.5 70.5 42.833 85.667v84q0 53-37.5 90.5t-90.5 37.5h-768q-53 0-90.5-37.5t-37.5-90.5v-84.333q0-45 42.833-85.667t118.333-70.5 172.833-44.833q-36.667-35.667-57.333-83.167t-20.667-100.833v-128q0-69.667 34.333-128.5t93.167-93.167 128.5-34.333zM512 640q-92.667 0-178.833 14.833t-150.167 41.5q-25.667 10.667-45.833 22.667t-30.667 21.667-15.833 16.833-5.333 11.5v84.333q0 17.667 12.5 30.167t30.167 12.5h768q17.667 0 30.167-12.5t12.5-30.167v-84q0-4.333-5.333-11.5t-15.833-16.833-30.667-21.667-45.833-23q-64-26.667-150.167-41.5t-178.833-14.833zM512 85.333q-70.667 0-120.667 50t-50 120.667v128q0 70.667 50 120.667t120.667 50 120.667-50 50-120.667v-128q0-70.667-50-120.667t-120.667-50z"></path>
</symbol>
<symbol id="icon-box" viewBox="0 0 1024 1024">
	<title>box</title>
	<path class="path1" d="M42.667 213.333l469.333-213.333 469.333 213.333v597.333l-469.333 213.333-469.333-213.333v-597.333zM469.333 454l-341.333-155v456.667l341.333 155.333v-457zM896 755.667v-456.667l-341.333 155v457zM826.667 236.667l-314.667-143-314.667 143 314.667 143z"></path>
</symbol>
</defs>
</svg>
