<?xml version="1.0" encoding="utf-8"?>
<!-- Generator: Adobe Illustrator 19.0.0, SVG Export Plug-In . SVG Version: 6.00 Build 0)  -->
<svg version="1.1" id="Layer_1" xmlns="http://www.w3.org/2000/svg" xmlns:xlink="http://www.w3.org/1999/xlink" x="0px" y="0px"
	 viewBox="0 0 209.7 209.1" style="enable-background:new 0 0 209.7 209.1;" xml:space="preserve">
<style type="text/css">
	.st0{fill:#E44D41;}
	.st1{fill:#1C447F;}
	.st2{fill:#FFFFFF;}
	.st3{fill:#13284D;}
	.st4{fill:#145FA3;}
	.st5{fill:#0581C2;}
	.st6{fill:#253D84;}
</style>
<!-- <rect x="-277.8" y="0" class="st0" width="209.7" height="209.1"/> -->
<path class="st1" d="M-33.3,693.2h-18.6c-3.4,0-6.2,3-6.2,6.5v49.5h12.4v-19.5h13.2c10.9,0,17.5-6.8,17.5-18.3
	C-15.1,699.5-21.4,693.2-33.3,693.2 M-27.5,711.3c0,2.4-0.6,4.2-1.8,5.4c-1.3,1.3-3.3,1.9-6,1.9h-10.3V704h10.8
	C-29.9,704-27.5,706.4-27.5,711.3"/>
<path class="st1" d="M-9.7,699.7v49.5H2.7v-56h-6.2C-7.5,693.2-9.7,695.5-9.7,699.7"/>
<path class="st1" d="M34,693.2H18.2c-4.1,0.1-6.2,2.3-6.2,6.5v49.5H31c4.9,0,8.9-0.4,11.8-1.1c10.5-2.8,16.8-12.9,16.8-26.9
	C59.6,702.6,50.9,693.2,34,693.2 M46.9,721.2c0,12-4.2,16.9-14.4,16.9h-8.3V704H34C42.9,704,46.9,709.3,46.9,721.2"/>
<path class="st1" d="M97.3,693.2c-2.6,0-4.5,1.2-5.7,3.7L82.9,716l-11.4-22.8H56.3l20.3,35.1v20.9h12.6v-20.9l18.4-35.1H97.3z"/>
<path class="st0" d="M29.8,677.8c0,5.2-4.2,9.4-9.4,9.4c-5.2,0-9.4-4.2-9.4-9.4s4.2-9.4,9.4-9.4C25.6,668.4,29.8,672.6,29.8,677.8"
	/>
<path class="st0" d="M-72.7,694c-14.5-26.5-47.8-36.3-74.3-21.8c-12.8,7-22.2,18.6-26.3,32.6c-4.1,14-2.5,28.8,4.5,41.7
	c3.4,6.3,8,11.8,13.4,16.2l2.9-5c2.1-3.7,6.8-4.9,10.4-2.8l1.7,1c3.7,2.1,4.9,6.8,2.8,10.4l-2.9,5.1c1.4,0.5,2.8,1,4.3,1.5
	c5.1,1.5,10.3,2.2,15.5,2.2c9,0,18-2.3,26.2-6.7c12.8-7,22.2-18.6,26.3-32.6C-64.1,721.6-65.6,706.8-72.7,694 M-86.9,730.1
	c-2.7,9-8.7,16.5-16.9,21c-8.3,4.5-17.8,5.5-26.8,2.9c-9-2.7-16.5-8.7-21-16.9c-4.5-8.3-5.5-17.8-2.9-26.8c2.7-9,8.7-16.5,16.9-21
	c5.3-2.9,11.1-4.3,16.8-4.3c12.5,0,24.6,6.6,31,18.3C-85.3,711.6-84.3,721.1-86.9,730.1"/>
<!-- <rect x="-277.8" y="229.1" width="487.5" height="314.1"/> -->
<path class="st2" d="M-33.3,359.1h-18.6c-3.4,0-6.2,3-6.2,6.5v49.5h12.4v-19.5h13.2c10.9,0,17.5-6.8,17.5-18.3
	C-15.1,365.5-21.4,359.1-33.3,359.1 M-27.5,377.2c0,2.4-0.6,4.2-1.8,5.4c-1.3,1.3-3.3,1.9-6,1.9h-10.3v-14.7h10.8
	C-29.9,369.9-27.5,372.3-27.5,377.2"/>
<path class="st2" d="M-9.7,365.6v49.5H2.7v-56h-6.2C-7.5,359.1-9.7,361.4-9.7,365.6"/>
<path class="st2" d="M34,359.1H18.2c-4.1,0.1-6.2,2.3-6.2,6.5v49.5H31c4.9,0,8.9-0.4,11.8-1.1c10.5-2.8,16.8-12.9,16.8-26.9
	C59.6,368.6,50.9,359.1,34,359.1 M46.9,387.2c0,12-4.2,16.9-14.4,16.9h-8.3V370H34C42.9,370,46.9,375.3,46.9,387.2"/>
<path class="st2" d="M97.3,359.1c-2.6,0-4.5,1.2-5.7,3.7L82.9,382l-11.4-22.8H56.3l20.3,35.1v20.9h12.6v-20.9l18.4-35.1H97.3z"/>
<path class="st0" d="M29.8,343.7c0,5.2-4.2,9.4-9.4,9.4c-5.2,0-9.4-4.2-9.4-9.4c0-5.2,4.2-9.4,9.4-9.4
	C25.6,334.3,29.8,338.5,29.8,343.7"/>
<path class="st0" d="M-72.7,359.9c-14.5-26.5-47.8-36.3-74.3-21.8c-12.8,7-22.2,18.6-26.3,32.6c-4.1,14-2.5,28.8,4.5,41.7
	c3.4,6.3,8,11.8,13.4,16.2l2.9-5c2.1-3.7,6.8-4.9,10.4-2.8l1.7,1c3.7,2.1,4.9,6.8,2.8,10.4l-2.9,5.1c1.4,0.5,2.8,1,4.3,1.5
	c5.1,1.5,10.3,2.2,15.5,2.2c9,0,18-2.3,26.2-6.7c12.8-7,22.2-18.6,26.3-32.6C-64.1,387.5-65.6,372.7-72.7,359.9 M-86.9,396
	c-2.7,9-8.7,16.5-16.9,21c-8.3,4.5-17.8,5.5-26.8,2.9c-9-2.7-16.5-8.7-21-16.9c-4.5-8.3-5.5-17.8-2.9-26.8c2.7-9,8.7-16.5,16.9-21
	c5.3-2.9,11.1-4.3,16.8-4.3c12.5,0,24.6,6.6,31,18.3C-85.3,377.5-84.3,387-86.9,396"/>
<path class="st3" d="M-33.3,1695.5h-18.6c-3.4,0-6.2,3-6.2,6.5v49.5h12.4V1732h13.2c10.9,0,17.5-6.8,17.5-18.3
	C-15.1,1701.8-21.4,1695.5-33.3,1695.5 M-27.5,1713.6c0,2.4-0.6,4.2-1.8,5.4c-1.3,1.3-3.3,1.9-6,1.9h-10.3v-14.7h10.8
	C-29.9,1706.2-27.5,1708.6-27.5,1713.6"/>
<path class="st3" d="M-9.7,1702v49.5H2.7v-56h-6.2C-7.5,1695.5-9.7,1697.7-9.7,1702"/>
<path class="st3" d="M34,1695.5H18.2c-4.1,0.1-6.2,2.3-6.2,6.5v49.5H31c4.9,0,8.9-0.4,11.8-1.1c10.5-2.8,16.8-12.9,16.8-26.9
	C59.6,1704.9,50.9,1695.5,34,1695.5 M46.9,1723.5c0,12-4.2,16.9-14.4,16.9h-8.3v-34.1H34C42.9,1706.3,46.9,1711.6,46.9,1723.5"/>
<path class="st3" d="M97.3,1695.5c-2.6,0-4.5,1.2-5.7,3.7l-8.7,19.1l-11.4-22.8H56.3l20.3,35.1v20.9h12.6v-20.9l18.4-35.1H97.3z"/>
<path class="st0" d="M29.8,1680c0,5.2-4.2,9.4-9.4,9.4c-5.2,0-9.4-4.2-9.4-9.4s4.2-9.4,9.4-9.4C25.6,1670.6,29.8,1674.8,29.8,1680"
	/>
<path class="st0" d="M-72.7,1696.2c-14.5-26.5-47.8-36.3-74.3-21.8c-12.8,7-22.2,18.6-26.3,32.6c-4.1,14-2.5,28.8,4.5,41.7
	c3.4,6.3,8,11.8,13.4,16.2l2.9-5c2.1-3.7,6.8-4.9,10.4-2.8l1.7,1c3.7,2.1,4.9,6.8,2.8,10.4l-2.9,5.1c1.4,0.5,2.8,1,4.3,1.5
	c5.1,1.5,10.3,2.2,15.5,2.2c9,0,18-2.3,26.2-6.7c12.8-7,22.2-18.6,26.3-32.6C-64.1,1723.8-65.6,1709-72.7,1696.2 M-86.9,1732.4
	c-2.7,9-8.7,16.5-16.9,21c-8.3,4.5-17.8,5.5-26.8,2.9c-9-2.7-16.5-8.7-21-16.9c-4.5-8.3-5.5-17.8-2.9-26.8c2.7-9,8.7-16.5,16.9-21
	c5.3-2.9,11.1-4.3,16.8-4.3c12.5,0,24.6,6.6,31,18.3C-85.3,1713.8-84.3,1723.3-86.9,1732.4"/>
<path class="st4" d="M-33.3,1027.3h-18.6c-3.4,0-6.2,3-6.2,6.5v49.5h12.4v-19.5h13.2c10.9,0,17.5-6.8,17.5-18.3
	C-15.1,1033.6-21.4,1027.3-33.3,1027.3 M-27.5,1045.4c0,2.4-0.6,4.2-1.8,5.4c-1.3,1.3-3.3,1.9-6,1.9h-10.3V1038h10.8
	C-29.9,1038-27.5,1040.4-27.5,1045.4"/>
<path class="st4" d="M-9.7,1033.8v49.5H2.7v-56h-6.2C-7.5,1027.3-9.7,1029.6-9.7,1033.8"/>
<path class="st4" d="M34,1027.3H18.2c-4.1,0.1-6.2,2.3-6.2,6.5v49.5H31c4.9,0,8.9-0.4,11.8-1.1c10.5-2.8,16.8-12.9,16.8-26.9
	C59.6,1036.7,50.9,1027.3,34,1027.3 M46.9,1055.3c0,12-4.2,16.9-14.4,16.9h-8.3v-34.1H34C42.9,1038.1,46.9,1043.4,46.9,1055.3"/>
<path class="st4" d="M97.3,1027.3c-2.6,0-4.5,1.2-5.7,3.7l-8.7,19.1l-11.4-22.8H56.3l20.3,35.1v20.9h12.6v-20.9l18.4-35.1H97.3z"/>
<path class="st0" d="M29.8,1011.9c0,5.2-4.2,9.4-9.4,9.4c-5.2,0-9.4-4.2-9.4-9.4c0-5.2,4.2-9.4,9.4-9.4
	C25.6,1002.5,29.8,1006.7,29.8,1011.9"/>
<path class="st0" d="M-72.7,1028c-14.5-26.5-47.8-36.3-74.3-21.8c-12.8,7-22.2,18.6-26.3,32.6c-4.1,14-2.5,28.8,4.5,41.7
	c3.4,6.3,8,11.8,13.4,16.2l2.9-5c2.1-3.7,6.8-4.9,10.4-2.8l1.7,1c3.7,2.1,4.9,6.8,2.8,10.4l-2.9,5.1c1.4,0.5,2.8,1,4.3,1.5
	c5.1,1.5,10.3,2.2,15.5,2.2c9,0,18-2.3,26.2-6.7c12.8-7,22.2-18.6,26.3-32.6C-64.1,1055.7-65.6,1040.9-72.7,1028 M-86.9,1064.2
	c-2.7,9-8.7,16.5-16.9,21c-8.3,4.5-17.8,5.5-26.8,2.9c-9-2.7-16.5-8.7-21-16.9c-4.5-8.3-5.5-17.8-2.9-26.8c2.7-9,8.7-16.5,16.9-21
	c5.3-2.9,11.1-4.3,16.8-4.3c12.5,0,24.6,6.6,31,18.3C-85.3,1045.7-84.3,1055.2-86.9,1064.2"/>
<path class="st5" d="M-33.3,1361.4h-18.6c-3.4,0-6.2,3-6.2,6.5v49.5h12.4v-19.5h13.2c10.9,0,17.5-6.8,17.5-18.3
	C-15.1,1367.7-21.4,1361.4-33.3,1361.4 M-27.5,1379.5c0,2.4-0.6,4.2-1.8,5.4c-1.3,1.3-3.3,1.9-6,1.9h-10.3v-14.7h10.8
	C-29.9,1372.1-27.5,1374.5-27.5,1379.5"/>
<path class="st5" d="M-9.7,1367.9v49.5H2.7v-56h-6.2C-7.5,1361.4-9.7,1363.6-9.7,1367.9"/>
<path class="st5" d="M34,1361.4H18.2c-4.1,0.1-6.2,2.3-6.2,6.5v49.5H31c4.9,0,8.9-0.4,11.8-1.1c10.5-2.8,16.8-12.9,16.8-26.9
	C59.6,1370.8,50.9,1361.4,34,1361.4 M46.9,1389.4c0,12-4.2,16.9-14.4,16.9h-8.3v-34.1H34C42.9,1372.2,46.9,1377.5,46.9,1389.4"/>
<path class="st5" d="M97.3,1361.4c-2.6,0-4.5,1.2-5.7,3.7l-8.7,19.1l-11.4-22.8H56.3l20.3,35.1v20.9h12.6v-20.9l18.4-35.1H97.3z"/>
<path class="st0" d="M29.8,1345.9c0,5.2-4.2,9.4-9.4,9.4c-5.2,0-9.4-4.2-9.4-9.4s4.2-9.4,9.4-9.4
	C25.6,1336.5,29.8,1340.8,29.8,1345.9"/>
<path class="st0" d="M-72.7,1362.1c-14.5-26.5-47.8-36.3-74.3-21.8c-12.8,7-22.2,18.6-26.3,32.6c-4.1,14-2.5,28.8,4.5,41.7
	c3.4,6.3,8,11.8,13.4,16.2l2.9-5c2.1-3.7,6.8-4.9,10.4-2.8l1.7,1c3.7,2.1,4.9,6.8,2.8,10.4l-2.9,5.1c1.4,0.5,2.8,1,4.3,1.5
	c5.1,1.5,10.3,2.2,15.5,2.2c9,0,18-2.3,26.2-6.7c12.8-7,22.2-18.6,26.3-32.6C-64.1,1389.8-65.6,1375-72.7,1362.1 M-86.9,1398.3
	c-2.7,9-8.7,16.5-16.9,21c-8.3,4.5-17.8,5.5-26.8,2.9c-9-2.7-16.5-8.7-21-16.9c-4.5-8.3-5.5-17.8-2.9-26.8c2.7-9,8.7-16.5,16.9-21
	c5.3-2.9,11.1-4.3,16.8-4.3c12.5,0,24.6,6.6,31,18.3C-85.3,1379.7-84.3,1389.3-86.9,1398.3"/>
<path class="st6" d="M-33.3,2029.6h-18.6c-3.4,0-6.2,3-6.2,6.5v49.5h12.4v-19.5h13.2c10.9,0,17.5-6.8,17.5-18.3
	C-15.1,2035.9-21.4,2029.6-33.3,2029.6 M-27.5,2047.6c0,2.4-0.6,4.2-1.8,5.4c-1.3,1.3-3.3,1.9-6,1.9h-10.3v-14.7h10.8
	C-29.9,2040.3-27.5,2042.7-27.5,2047.6"/>
<path class="st6" d="M-9.7,2036v49.5H2.7v-56h-6.2C-7.5,2029.6-9.7,2031.8-9.7,2036"/>
<path class="st6" d="M34,2029.6H18.2c-4.1,0.1-6.2,2.3-6.2,6.5v49.5H31c4.9,0,8.9-0.4,11.8-1.1c10.5-2.8,16.8-12.9,16.8-26.9
	C59.6,2039,50.9,2029.6,34,2029.6 M46.9,2057.6c0,12-4.2,16.9-14.4,16.9h-8.3v-34.1H34C42.9,2040.4,46.9,2045.7,46.9,2057.6"/>
<path class="st6" d="M97.3,2029.6c-2.6,0-4.5,1.2-5.7,3.7l-8.7,19.1l-11.4-22.8H56.3l20.3,35.1v20.9h12.6v-20.9l18.4-35.1H97.3z"/>
<path class="st0" d="M29.8,2014.1c0,5.2-4.2,9.4-9.4,9.4c-5.2,0-9.4-4.2-9.4-9.4c0-5.2,4.2-9.4,9.4-9.4
	C25.6,2004.7,29.8,2008.9,29.8,2014.1"/>
<path class="st0" d="M-72.7,2030.3c-14.5-26.5-47.8-36.3-74.3-21.8c-12.8,7-22.2,18.6-26.3,32.6c-4.1,14-2.5,28.8,4.5,41.7
	c3.4,6.3,8,11.8,13.4,16.2l2.9-5c2.1-3.7,6.8-4.9,10.4-2.8l1.7,1c3.7,2.1,4.9,6.8,2.8,10.4l-2.9,5.1c1.4,0.5,2.8,1,4.3,1.5
	c5.1,1.5,10.3,2.2,15.5,2.2c9,0,18-2.3,26.2-6.7c12.8-7,22.2-18.6,26.3-32.6C-64.1,2057.9-65.6,2043.1-72.7,2030.3 M-86.9,2066.5
	c-2.7,9-8.7,16.5-16.9,21c-8.3,4.5-17.8,5.5-26.8,2.9c-9-2.7-16.5-8.7-21-16.9c-4.5-8.3-5.5-17.8-2.9-26.8c2.7-9,8.7-16.5,16.9-21
	c5.3-2.9,11.1-4.3,16.8-4.3c12.5,0,24.6,6.6,31,18.3C-85.3,2047.9-84.3,2057.4-86.9,2066.5"/>
<path class="st0" d="M-103.8-162.2c-20.7-37.9-68.4-51.9-106.3-31.3c-18.4,10-31.7,26.6-37.6,46.7c-5.9,20.1-3.6,41.3,6.4,59.6
	c4.9,9,11.4,16.8,19.2,23.2l4.1-7.2c3-5.2,9.7-7,14.9-4l2.5,1.4c5.2,3,7,9.7,4,14.9l-4.2,7.2c2,0.8,4,1.5,6.1,2.1
	c7.3,2.2,14.8,3.2,22.2,3.2c12.9,0,25.7-3.2,37.4-9.6c18.4-10,31.7-26.6,37.6-46.7C-91.5-122.6-93.7-143.8-103.8-162.2
	 M-124.2-110.4c-3.8,12.9-12.4,23.6-24.2,30c-11.8,6.4-25.4,7.9-38.3,4.1c-12.9-3.8-23.6-12.4-30-24.2c-6.4-11.8-7.9-25.4-4.1-38.3
	c3.8-12.9,12.4-23.6,24.2-30c7.6-4.2,15.9-6.1,24-6.1c17.9,0,35.2,9.5,44.3,26.2C-121.9-137-120.4-123.3-124.2-110.4"/>
<path class="st2" d="M-103.8,66.9C-124.5,29-172.1,15-210.1,35.7c-18.4,10-31.7,26.6-37.6,46.7c-5.9,20.1-3.6,41.3,6.4,59.6
	c4.9,9,11.4,16.8,19.2,23.2l4.1-7.2c3-5.2,9.7-7,14.9-4l2.5,1.4c5.2,3,7,9.7,4,14.9l-4.2,7.2c2,0.8,4,1.5,6.1,2.1
	c7.3,2.2,14.8,3.2,22.2,3.2c12.9,0,25.7-3.2,37.4-9.6c18.4-10,31.7-26.6,37.6-46.7C-91.5,106.5-93.7,85.3-103.8,66.9 M-124.2,118.7
	c-3.8,12.9-12.4,23.6-24.2,30c-11.8,6.4-25.4,7.9-38.3,4.1c-12.9-3.8-23.6-12.4-30-24.2c-6.4-11.8-7.9-25.4-4.1-38.3
	c3.8-12.9,12.4-23.6,24.2-30c7.6-4.2,15.9-6.1,24-6.1c17.9,0,35.2,9.5,44.3,26.2C-121.9,92.1-120.4,105.8-124.2,118.7"/>
<!-- <rect x="0" y="0" width="209.7" height="209.1"/> -->
<path class="st0" d="M174,66.9C153.3,29,105.7,15,67.7,35.7C49.4,45.7,36,62.3,30.1,82.4c-5.9,20.1-3.6,41.3,6.4,59.6
	c4.9,9,11.4,16.8,19.2,23.2l4.1-7.2c3-5.2,9.7-7,14.9-4l2.5,1.4c5.2,3,7,9.7,4,14.9l-4.2,7.2c2,0.8,4,1.5,6.1,2.1
	c7.3,2.2,14.8,3.2,22.2,3.2c12.9,0,25.7-3.2,37.4-9.6c18.4-10,31.7-26.6,37.6-46.7C186.3,106.5,184.1,85.3,174,66.9 M153.6,118.7
	c-3.8,12.9-12.4,23.6-24.2,30c-11.8,6.4-25.4,7.9-38.3,4.1c-12.9-3.8-23.6-12.4-30-24.2c-6.4-11.8-7.9-25.4-4.1-38.3
	c3.8-12.9,12.4-23.6,24.2-30c7.6-4.2,15.9-6.1,24-6.1c17.9,0,35.2,9.5,44.3,26.2C155.9,92.1,157.4,105.8,153.6,118.7"/>
</svg>
